<svg width="181" height="183" viewBox="0 0 181 183" xmlns="http://www.w3.org/2000/svg">
<path fill-rule="evenodd" clip-rule="evenodd" d="M167.412 83.9325C185.691 64.5315 185.343 33.9815 166.367 15.0054C147.391 -3.9708 116.841 -4.31909 97.4396 13.9605L97.4239 13.9448L42.9767 68.392L42.9925 68.4078C41.1889 70.5687 41.3015 73.7879 43.3302 75.8166C45.3589 77.8453 48.5782 77.9579 50.739 76.1543L50.7548 76.1702L56.4117 70.5133L56.4276 70.5291C56.5335 70.4022 56.6461 70.2789 56.7653 70.1597C58.9132 68.0118 62.3956 68.0118 64.5435 70.1597C66.6872 72.3035 66.6913 75.7767 64.5558 77.9256L64.5435 77.9379L64.5311 77.9502C64.4158 78.0648 64.2966 78.1733 64.1741 78.2756L64.1899 78.2914L46.5122 95.9691L46.528 95.985C44.7245 98.1458 44.837 101.365 46.8657 103.394C48.8945 105.422 52.1137 105.535 54.2745 103.731L54.2904 103.747L74.7965 83.2412L74.8123 83.2571C74.9183 83.1301 75.0309 83.0068 75.1501 82.8876C77.2979 80.7398 80.7803 80.7398 82.9282 82.8876C85.0742 85.0336 85.0761 88.5117 82.934 90.66L82.9282 90.6658L82.9224 90.6716C82.8051 90.7886 82.6837 90.8993 82.5588 91.0035L82.5747 91.0194L13.9853 159.609L14.0011 159.625C12.1976 161.785 12.3101 165.005 14.3388 167.033C16.3675 169.062 19.5868 169.175 21.7476 167.371L21.7635 167.387L22.1115 167.039L22.117 167.033L96.0097 93.1407L96.0255 93.1565C96.13 93.0314 96.2408 92.9099 96.358 92.7923L96.3633 92.7871L96.3685 92.7819C98.5168 90.6392 101.995 90.641 104.141 92.7871C106.289 94.935 106.289 98.4174 104.141 100.565C104.022 100.684 103.899 100.797 103.772 100.903L103.788 100.919L57.4778 147.229L57.4723 147.234L57.1188 147.588L57.1346 147.604C55.3311 149.765 55.4436 152.984 57.4723 155.013C59.501 157.041 62.7203 157.154 64.8811 155.35L64.897 155.366L65.245 155.018L65.2505 155.013L103.081 117.182L103.097 117.198C103.199 117.076 103.307 116.957 103.422 116.841L103.434 116.829L103.447 116.816C105.596 114.681 109.069 114.685 111.212 116.829C113.36 118.977 113.36 122.459 111.212 124.607C111.093 124.726 110.97 124.839 110.843 124.945L110.859 124.96L101.667 134.153L101.682 134.169C99.8788 136.33 99.9914 139.549 102.02 141.578C104.049 143.606 107.268 143.719 109.429 141.915L109.445 141.931L167.427 83.9483L167.412 83.9325ZM109.254 77.38C110.694 78.7 112.794 79.36 115.554 79.36H121.674C121.874 79.36 122.034 79.28 122.154 79.12C122.314 79 122.394 78.84 122.394 78.64V71.5C122.394 71.3 122.314 71.12 122.154 70.96C122.034 70.84 121.874 70.78 121.674 70.78H120.234C119.314 70.78 118.554 70.46 117.954 69.82C117.354 69.18 117.054 68.32 117.054 67.24V58.06C117.054 56.06 116.754 54.44 116.154 53.2C115.554 51.96 114.614 51.04 113.334 50.44C113.094 50.32 113.094 50.2 113.334 50.08C114.614 49.48 115.554 48.56 116.154 47.32C116.754 46.08 117.054 44.46 117.054 42.46V33.52C117.054 32.48 117.354 31.64 117.954 31C118.554 30.32 119.314 29.98 120.234 29.98H121.674C121.874 29.98 122.034 29.92 122.154 29.8C122.314 29.64 122.394 29.46 122.394 29.26V22.12C122.394 21.92 122.314 21.76 122.154 21.64C122.034 21.48 121.874 21.4 121.674 21.4H115.554C112.794 21.4 110.694 22.06 109.254 23.38C107.814 24.66 107.094 26.54 107.094 29.02V41.02C107.094 42.7 106.774 43.98 106.134 44.86C105.534 45.7 104.554 46.18 103.194 46.3C102.714 46.34 102.474 46.6 102.474 47.08V53.44C102.474 53.88 102.714 54.14 103.194 54.22C104.554 54.34 105.534 54.84 106.134 55.72C106.774 56.56 107.094 57.84 107.094 59.56V71.74C107.094 74.22 107.814 76.1 109.254 77.38ZM138.806 79.12C138.966 79.28 139.146 79.36 139.346 79.36H145.466C148.226 79.36 150.326 78.7 151.766 77.38C153.206 76.1 153.926 74.22 153.926 71.74V59.56C153.926 57.84 154.226 56.56 154.826 55.72C155.466 54.84 156.466 54.34 157.826 54.22C158.306 54.14 158.546 53.88 158.546 53.44V47.08C158.546 46.6 158.306 46.34 157.826 46.3C156.466 46.18 155.466 45.7 154.826 44.86C154.226 43.98 153.926 42.7 153.926 41.02V29.02C153.926 26.54 153.206 24.66 151.766 23.38C150.326 22.06 148.226 21.4 145.466 21.4H139.346C139.146 21.4 138.966 21.48 138.806 21.64C138.686 21.76 138.626 21.92 138.626 22.12V29.26C138.626 29.46 138.686 29.64 138.806 29.8C138.966 29.92 139.146 29.98 139.346 29.98H140.786C141.706 29.98 142.466 30.32 143.066 31C143.666 31.64 143.966 32.48 143.966 33.52V42.46C143.966 44.46 144.266 46.08 144.866 47.32C145.466 48.56 146.406 49.48 147.686 50.08C147.926 50.2 147.926 50.32 147.686 50.44C146.406 51.04 145.466 51.96 144.866 53.2C144.266 54.44 143.966 56.06 143.966 58.06V67.24C143.966 68.32 143.666 69.18 143.066 69.82C142.466 70.46 141.706 70.78 140.786 70.78H139.346C139.146 70.78 138.966 70.84 138.806 70.96C138.686 71.12 138.626 71.3 138.626 71.5V78.64C138.626 78.84 138.686 79 138.806 79.12Z"/>
<path fill-rule="evenodd" clip-rule="evenodd" d="M167.412 83.9325C185.691 64.5315 185.343 33.9815 166.367 15.0054C147.391 -3.9708 116.841 -4.31909 97.4396 13.9605L97.4239 13.9448L42.9767 68.392L42.9925 68.4078C41.1889 70.5687 41.3015 73.7879 43.3302 75.8166C45.3589 77.8453 48.5782 77.9579 50.739 76.1543L50.7548 76.1702L56.4117 70.5133L56.4276 70.5291C56.5335 70.4022 56.6461 70.2789 56.7653 70.1597C58.9132 68.0118 62.3956 68.0118 64.5435 70.1597C66.6872 72.3035 66.6913 75.7767 64.5558 77.9256L64.5435 77.9379L64.5311 77.9502C64.4158 78.0648 64.2966 78.1733 64.1741 78.2756L64.1899 78.2914L46.5122 95.9691L46.528 95.985C44.7245 98.1458 44.837 101.365 46.8657 103.394C48.8945 105.422 52.1137 105.535 54.2745 103.731L54.2904 103.747L74.7965 83.2412L74.8123 83.2571C74.9183 83.1301 75.0309 83.0068 75.1501 82.8876C77.2979 80.7398 80.7803 80.7398 82.9282 82.8876C85.0742 85.0336 85.0761 88.5117 82.934 90.66L82.9282 90.6658L82.9224 90.6716C82.8051 90.7886 82.6837 90.8993 82.5588 91.0035L82.5747 91.0194L13.9853 159.609L14.0011 159.625C12.1976 161.785 12.3101 165.005 14.3388 167.033C16.3675 169.062 19.5868 169.175 21.7476 167.371L21.7635 167.387L22.1115 167.039L22.117 167.033L96.0097 93.1407L96.0255 93.1565C96.13 93.0314 96.2408 92.9099 96.358 92.7923L96.3633 92.7871L96.3685 92.7819C98.5168 90.6392 101.995 90.641 104.141 92.7871C106.289 94.935 106.289 98.4174 104.141 100.565C104.022 100.684 103.899 100.797 103.772 100.903L103.788 100.919L57.4778 147.229L57.4723 147.234L57.1188 147.588L57.1346 147.604C55.3311 149.765 55.4436 152.984 57.4723 155.013C59.501 157.041 62.7203 157.154 64.8811 155.35L64.897 155.366L65.245 155.018L65.2505 155.013L103.081 117.182L103.097 117.198C103.199 117.076 103.307 116.957 103.422 116.841L103.434 116.829L103.447 116.816C105.596 114.681 109.069 114.685 111.212 116.829C113.36 118.977 113.36 122.459 111.212 124.607C111.093 124.726 110.97 124.839 110.843 124.945L110.859 124.96L101.667 134.153L101.682 134.169C99.8788 136.33 99.9914 139.549 102.02 141.578C104.049 143.606 107.268 143.719 109.429 141.915L109.445 141.931L167.427 83.9483L167.412 83.9325ZM109.254 77.38C110.694 78.7 112.794 79.36 115.554 79.36H121.674C121.874 79.36 122.034 79.28 122.154 79.12C122.314 79 122.394 78.84 122.394 78.64V71.5C122.394 71.3 122.314 71.12 122.154 70.96C122.034 70.84 121.874 70.78 121.674 70.78H120.234C119.314 70.78 118.554 70.46 117.954 69.82C117.354 69.18 117.054 68.32 117.054 67.24V58.06C117.054 56.06 116.754 54.44 116.154 53.2C115.554 51.96 114.614 51.04 113.334 50.44C113.094 50.32 113.094 50.2 113.334 50.08C114.614 49.48 115.554 48.56 116.154 47.32C116.754 46.08 117.054 44.46 117.054 42.46V33.52C117.054 32.48 117.354 31.64 117.954 31C118.554 30.32 119.314 29.98 120.234 29.98H121.674C121.874 29.98 122.034 29.92 122.154 29.8C122.314 29.64 122.394 29.46 122.394 29.26V22.12C122.394 21.92 122.314 21.76 122.154 21.64C122.034 21.48 121.874 21.4 121.674 21.4H115.554C112.794 21.4 110.694 22.06 109.254 23.38C107.814 24.66 107.094 26.54 107.094 29.02V41.02C107.094 42.7 106.774 43.98 106.134 44.86C105.534 45.7 104.554 46.18 103.194 46.3C102.714 46.34 102.474 46.6 102.474 47.08V53.44C102.474 53.88 102.714 54.14 103.194 54.22C104.554 54.34 105.534 54.84 106.134 55.72C106.774 56.56 107.094 57.84 107.094 59.56V71.74C107.094 74.22 107.814 76.1 109.254 77.38ZM138.806 79.12C138.966 79.28 139.146 79.36 139.346 79.36H145.466C148.226 79.36 150.326 78.7 151.766 77.38C153.206 76.1 153.926 74.22 153.926 71.74V59.56C153.926 57.84 154.226 56.56 154.826 55.72C155.466 54.84 156.466 54.34 157.826 54.22C158.306 54.14 158.546 53.88 158.546 53.44V47.08C158.546 46.6 158.306 46.34 157.826 46.3C156.466 46.18 155.466 45.7 154.826 44.86C154.226 43.98 153.926 42.7 153.926 41.02V29.02C153.926 26.54 153.206 24.66 151.766 23.38C150.326 22.06 148.226 21.4 145.466 21.4H139.346C139.146 21.4 138.966 21.48 138.806 21.64C138.686 21.76 138.626 21.92 138.626 22.12V29.26C138.626 29.46 138.686 29.64 138.806 29.8C138.966 29.92 139.146 29.98 139.346 29.98H140.786C141.706 29.98 142.466 30.32 143.066 31C143.666 31.64 143.966 32.48 143.966 33.52V42.46C143.966 44.46 144.266 46.08 144.866 47.32C145.466 48.56 146.406 49.48 147.686 50.08C147.926 50.2 147.926 50.32 147.686 50.44C146.406 51.04 145.466 51.96 144.866 53.2C144.266 54.44 143.966 56.06 143.966 58.06V67.24C143.966 68.32 143.666 69.18 143.066 69.82C142.466 70.46 141.706 70.78 140.786 70.78H139.346C139.146 70.78 138.966 70.84 138.806 70.96C138.686 71.12 138.626 71.3 138.626 71.5V78.64C138.626 78.84 138.686 79 138.806 79.12Z"/>
<path d="M31.309 80.0597L16.8137 94.5549L16.8296 94.5708C16.7026 94.6767 16.5793 94.7893 16.4602 94.9085C14.3123 97.0564 14.3123 100.539 16.4602 102.687C18.608 104.835 22.0904 104.835 24.2383 102.687C24.3575 102.567 24.4701 102.444 24.576 102.317L24.5919 102.333L39.4411 87.4839L39.4253 87.468C41.2288 85.3072 41.1163 82.0879 39.0876 80.0592C37.0589 78.0305 33.8396 77.918 31.6788 79.7215L31.663 79.7057L31.3098 80.0588L31.309 80.0597Z"/>
<path d="M31.309 80.0597L16.8137 94.5549L16.8296 94.5708C16.7026 94.6767 16.5793 94.7893 16.4602 94.9085C14.3123 97.0564 14.3123 100.539 16.4602 102.687C18.608 104.835 22.0904 104.835 24.2383 102.687C24.3575 102.567 24.4701 102.444 24.576 102.317L24.5919 102.333L39.4411 87.4839L39.4253 87.468C41.2288 85.3072 41.1163 82.0879 39.0876 80.0592C37.0589 78.0305 33.8396 77.918 31.6788 79.7215L31.663 79.7057L31.3098 80.0588L31.309 80.0597Z"/>
<path d="M31.663 110.818L16.8137 125.668L16.8296 125.683C16.7026 125.789 16.5793 125.902 16.4602 126.021C14.3123 128.169 14.3123 131.651 16.4602 133.799C18.608 135.947 22.0904 135.947 24.2383 133.799C24.3575 133.68 24.4701 133.557 24.576 133.43L24.5919 133.446L39.4411 118.597L39.4253 118.581C39.5522 118.475 39.6755 118.362 39.7947 118.243C41.9426 116.095 41.9426 112.613 39.7947 110.465C37.6468 108.317 34.1644 108.317 32.0165 110.465C31.8973 110.584 31.7848 110.707 31.6788 110.834L31.663 110.818Z"/>
<path d="M31.663 110.818L16.8137 125.668L16.8296 125.683C16.7026 125.789 16.5793 125.902 16.4602 126.021C14.3123 128.169 14.3123 131.651 16.4602 133.799C18.608 135.947 22.0904 135.947 24.2383 133.799C24.3575 133.68 24.4701 133.557 24.576 133.43L24.5919 133.446L39.4411 118.597L39.4253 118.581C39.5522 118.475 39.6755 118.362 39.7947 118.243C41.9426 116.095 41.9426 112.613 39.7947 110.465C37.6468 108.317 34.1644 108.317 32.0165 110.465C31.8973 110.584 31.7848 110.707 31.6788 110.834L31.663 110.818Z"/>
<path d="M86.1102 149.709L86.126 149.725C84.3225 151.886 84.435 155.105 86.4637 157.134C88.4924 159.163 91.7117 159.275 93.8725 157.472L93.8883 157.487L99.5452 151.831L99.5293 151.815C101.333 149.654 101.22 146.435 99.1916 144.406C97.1629 142.377 93.9437 142.265 91.7829 144.068L91.767 144.052L86.1102 149.709Z"/>
<path d="M86.1102 149.709L86.126 149.725C84.3225 151.886 84.435 155.105 86.4637 157.134C88.4924 159.163 91.7117 159.275 93.8725 157.472L93.8883 157.487L99.5452 151.831L99.5293 151.815C101.333 149.654 101.22 146.435 99.1916 144.406C97.1629 142.377 93.9437 142.265 91.7829 144.068L91.767 144.052L86.1102 149.709Z"/>
<path d="M4.79289 170.215L1.96447 173.044L1.98032 173.06C1.85338 173.166 1.73009 173.278 1.61091 173.397C-0.536971 175.545 -0.536971 179.028 1.61091 181.176C3.7588 183.323 7.2412 183.323 9.38909 181.176C9.50827 181.056 9.62084 180.933 9.72679 180.806L9.74264 180.822L12.5711 177.994L12.5552 177.978C14.3588 175.817 14.2462 172.598 12.2175 170.569C10.1888 168.54 6.96957 168.428 4.80875 170.231L4.79289 170.215Z"/>
<path d="M4.79289 170.215L1.96447 173.044L1.98032 173.06C1.85338 173.166 1.73009 173.278 1.61091 173.397C-0.536971 175.545 -0.536971 179.028 1.61091 181.176C3.7588 183.323 7.2412 183.323 9.38909 181.176C9.50827 181.056 9.62084 180.933 9.72679 180.806L9.74264 180.822L12.5711 177.994L12.5552 177.978C14.3588 175.817 14.2462 172.598 12.2175 170.569C10.1888 168.54 6.96957 168.428 4.80875 170.231L4.79289 170.215Z"/>
</svg>
